<svg xmlns="http://www.w3.org/2000/svg" viewBox="0 0 919.76 865.38"><defs><style>.cls-1,.cls-5,.cls-6{fill:#fff;}.cls-10,.cls-2,.cls-9{fill:#55d36d;}.cls-3,.cls-4{fill:none;stroke-miterlimit:10;}.cls-3{stroke:#55d36d;}.cls-4{stroke:#fff;}.cls-5,.cls-9{font-size:34.83px;}.cls-10,.cls-5,.cls-6,.cls-9{font-family:Roboto-Regular, Roboto;}.cls-10,.cls-6{font-size:24.88px;}.cls-7{letter-spacing:-0.02em;}.cls-8{letter-spacing:-0.01em;}.cls-11{letter-spacing:-0.02em;}.cls-12{letter-spacing:-0.01em;}</style></defs><title>Asset 4</title><g id="Layer_2" data-name="Layer 2"><g id="Layer_1-2" data-name="Layer 1"><path class="cls-1" d="M63.08,428.14a1.51,1.51,0,0,1-1.18-2.25L180.81,217.13a1.54,1.54,0,0,1,1.64-.73,1.5,1.5,0,0,1,1.17,1.37L197.84,419.4a1.52,1.52,0,0,1-.37,1.1,1.5,1.5,0,0,1-1.05.5L63.29,428.14ZM181,222.94,65.88,425l128.84-6.91Z"/><path class="cls-1" d="M196.21,421a1.42,1.42,0,0,1-.4-.08,1.51,1.51,0,0,1-1-1.31L180.62,218a1.51,1.51,0,0,1,2.56-1.18l108,106.35a1.49,1.49,0,0,1,0,2.13l-93.77,95.28A1.51,1.51,0,0,1,196.21,421ZM183.9,221.74l13.7,194.33L288,324.24Z"/><path class="cls-1" d="M295.73,503.05a1.63,1.63,0,0,1-.84-.35l-99.52-82a1.51,1.51,0,0,1-.54-1.08,1.45,1.45,0,0,1,.43-1.13L289,323.17a1.5,1.5,0,0,1,1.63-.35,1.47,1.47,0,0,1,.95,1.35l5.76,177.33a1.52,1.52,0,0,1-1.64,1.55Zm-97.17-83.67,95.68,78.88-5.53-170.48Z"/><path class="cls-1" d="M258.64,538.3l-.12,0a1.49,1.49,0,0,1-1.09-.78L195,420.21a1.51,1.51,0,0,1,2.28-1.88l99.52,82.05a1.6,1.6,0,0,1,.56,1.11,1.55,1.55,0,0,1-.47,1.15l-37.1,35.25A1.52,1.52,0,0,1,258.64,538.3ZM201.23,425.49l57.93,108.85,34.43-32.72Z"/><path class="cls-1" d="M605.33,378.78a1.51,1.51,0,0,1-1-.5l-77.77-88.34a1.49,1.49,0,0,1-.37-1.21,1.51,1.51,0,0,1,.68-1.05l77.6-49.36a1.5,1.5,0,0,1,1.53-.06,1.52,1.52,0,0,1,.79,1.32l.17,137.7a1.5,1.5,0,0,1-1.62,1.5ZM530,289.27l74,84-.17-130.95Z"/><path class="cls-1" d="M400.49,333.4l-.24,0a1.52,1.52,0,0,1-1-.88l-39-92.87a1.51,1.51,0,0,1,.35-1.67,1.47,1.47,0,0,1,1.69-.27l97.16,45.78a1.51,1.51,0,0,1,.3,2.53l-58.19,47.1A1.48,1.48,0,0,1,400.49,333.4Zm-35.94-91.32,36.68,87.4L456,285.16Z"/><path class="cls-1" d="M182,219.38l-.26,0L160,213.61a1.5,1.5,0,0,1-.61-2.58,111.75,111.75,0,0,1,14.12-10.7,1.52,1.52,0,0,1,1.23-.18,1.57,1.57,0,0,1,1,.8l7.77,16.28a1.52,1.52,0,0,1-.19,1.61A1.55,1.55,0,0,1,182,219.38Zm-18.44-8,15.8,4.17-5.63-11.79A109.5,109.5,0,0,0,163.56,211.42Z"/><path class="cls-1" d="M605.33,378.78a1.55,1.55,0,0,1-1-.43,1.5,1.5,0,0,1-.44-1.07l-.18-137.69a1.5,1.5,0,0,1,2.64-1l96.12,109.59a1.44,1.44,0,0,1,.34.66,60.34,60.34,0,0,1,1.15,6.6,59.13,59.13,0,0,1,.14,12.48,41.35,41.35,0,0,1,8.17,7.61,1.5,1.5,0,0,1,.2,1.6,1.52,1.52,0,0,1-1.35.87l-105.71.79Zm1.45-135.18L607,375.76,707.81,375a37.7,37.7,0,0,0-6.09-5.1,1.56,1.56,0,0,1-.66-1.42,56.26,56.26,0,0,0,0-12.71,59,59,0,0,0-1-5.9Z"/><path class="cls-1" d="M251.53,605.64h-.07l-40.16-5a1.56,1.56,0,0,1-1.05-.64,122.34,122.34,0,0,1-16.91-35.31,1.52,1.52,0,0,1,.85-1.82l64-27.42a1.51,1.51,0,0,1,2.09,1.54l-7.11,67.34a1.5,1.5,0,0,1-1.62,1.34Zm-39.19-7.94,38,4.75L257,539.19,196.61,565.1A119.65,119.65,0,0,0,212.34,597.7Z"/><path class="cls-1" d="M524.07,865.38a1.5,1.5,0,0,1-1.39-1.49l1.43,0-1.43-.25a1.61,1.61,0,0,1,.53-1.21,1.5,1.5,0,0,1,1.21-.4l.43.06a1.54,1.54,0,0,1,1.22,1.14,1.51,1.51,0,0,1-.57,1.57l-.4.31A1.55,1.55,0,0,1,524.07,865.38Z"/><path class="cls-1" d="M290,325.72a1.43,1.43,0,0,1-.93-.42L181.06,219a1.51,1.51,0,0,1,1.74-2.42l136.45,69.29a1.57,1.57,0,0,1,.79,1,1.52,1.52,0,0,1-.28,1.25L291.3,325.14a1.45,1.45,0,0,1-1.09.58ZM190.1,223.62,290,322l26.32-34.26Z"/><path class="cls-1" d="M290,325.72a1.48,1.48,0,0,1-1.24-.88,1.51,1.51,0,0,1,.17-1.54l28.46-37.05a1.49,1.49,0,0,1,1.92-.4l82,44.73a1.51,1.51,0,0,1-.83,2.83L290,325.72Zm29-36.6-26,33.79,100.82,7Z"/><path class="cls-1" d="M318.44,288.67a1.44,1.44,0,0,1-.52-.14,1.52,1.52,0,0,1-.85-1.59l10.6-69.63a1.49,1.49,0,0,1,2.31-1l32.5,21.5a1.5,1.5,0,0,1,.29,2.25l-43.08,48.13A1.48,1.48,0,0,1,318.44,288.67Zm11.85-68.58-9.48,62.31,38.55-43.06Z"/><path class="cls-1" d="M400.49,333.4a1.33,1.33,0,0,1-.6-.17l-82-44.74a1.5,1.5,0,0,1-.4-2.33L360.52,238a1.53,1.53,0,0,1,1.38-.49,1.49,1.49,0,0,1,1.13.9l39,92.87a1.49,1.49,0,0,1-1.51,2.08ZM321,286.76l76.59,41.77-36.38-86.71Z"/><path class="cls-1" d="M283.59,649.75a.85.85,0,0,1-.22,0c-2.38-.55-4.72-1.2-7-1.88a1.48,1.48,0,0,1-.86-.67L250.35,604.9a1.49,1.49,0,0,1,.12-1.7,1.53,1.53,0,0,1,1.64-.49l48.69,15.85a1.49,1.49,0,0,1,.95.9,1.52,1.52,0,0,1-.11,1.3L285,649A1.51,1.51,0,0,1,283.59,649.75Zm-5.84-4.65q2.6.78,5.22,1.41l15.12-25.67-43.1-14Z"/><path class="cls-1" d="M718.09,421.81a2.71,2.71,0,0,1-.41-.09l-112.77-43A1.5,1.5,0,0,1,604,377a1.52,1.52,0,0,1,1.47-1.25L711.14,375a1.53,1.53,0,0,1,1.18.55,41,41,0,0,1,8.74,33.64,1.53,1.53,0,0,1,.28,1.06l-1.64,10.31a1.53,1.53,0,0,1-.74,1.07A1.57,1.57,0,0,1,718.09,421.81ZM613.47,378.73,717,418.24l1.25-7.84a1.64,1.64,0,0,1-.31-1A38.11,38.11,0,0,0,710.44,378Z"/><path class="cls-1" d="M726.55,430.18a1.47,1.47,0,0,1-.93-.43l-8.47-8.38a1.46,1.46,0,0,1-.43-1.3l1.66-10.33a1.51,1.51,0,0,1,2.36-1,41.28,41.28,0,0,1,6.71,6.06,1.46,1.46,0,0,1,.38,1l.35,12.85a1.52,1.52,0,0,1-.91,1.42A1.46,1.46,0,0,1,726.55,430.18Zm-6.73-10.41,5.24,5.2-.22-8.55a41,41,0,0,0-3.89-3.7Z"/><path class="cls-1" d="M51.49,537.23a1.51,1.51,0,0,1-1.06-.56l-49-61.28a1.64,1.64,0,0,1-.31-.73l-.14-1c-.08-.55-.17-1.1-.23-1.66A115.16,115.16,0,0,1,2,437.24,1.51,1.51,0,0,1,3.22,436l59.72-10.88a1.5,1.5,0,0,1,1.77,1.64L53.11,535.89A1.54,1.54,0,0,1,52,537.18,1.44,1.44,0,0,1,51.49,537.23ZM4.08,473.83l46.41,58.09,11-103.44L4.79,438.81a112.25,112.25,0,0,0-1,32.88c.06.53.14,1.05.22,1.58Z"/><path class="cls-1" d="M726.55,430.18a1.45,1.45,0,0,1-.61-.19,1.54,1.54,0,0,1-.78-1.27l-.33-12.85a1.5,1.5,0,0,1,2.62-1.05,40.92,40.92,0,0,1,6.59,9.89,1.51,1.51,0,0,1-.63,2l-6,3.33A1.49,1.49,0,0,1,726.55,430.18Zm1.4-9.91.17,5.89,2.57-1.43A37.62,37.62,0,0,0,728,420.27Z"/><path class="cls-1" d="M318.44,288.67a1.42,1.42,0,0,1-.56-.15l-136.44-69.3a1.51,1.51,0,0,1,.23-2.78L286.5,183.56a1.54,1.54,0,0,1,1.15.11,1.47,1.47,0,0,1,.73.89L320,286.73a1.48,1.48,0,0,1-.47,1.59A1.5,1.5,0,0,1,318.44,288.67ZM186.1,218.21l130,66L286,186.9Z"/><path class="cls-1" d="M318.44,288.67a1.5,1.5,0,0,1-1.31-1.06L285.5,185.44a1.51,1.51,0,0,1,2.37-1.63l42.21,32.54a1.51,1.51,0,0,1,.57,1.41l-10.59,69.63a1.5,1.5,0,0,1-1.39,1.28ZM289.79,189.1l28.27,91.35,9.47-62.26Z"/><path class="cls-1" d="M251.53,605.64a1.5,1.5,0,0,1-.88-.38,1.51,1.51,0,0,1-.5-1.28l7.11-67.34a1.5,1.5,0,0,1,.92-1.23,1.54,1.54,0,0,1,1.52.21l64.11,51.53a1.5,1.5,0,0,1-.62,2.64L252,605.61A1.29,1.29,0,0,1,251.53,605.64ZM260,539.7l-6.6,62.51,66.1-14.67Z"/><path class="cls-1" d="M300.21,621.49a1.09,1.09,0,0,1-.34-.07l-48.69-15.85a1.48,1.48,0,0,1-1-1.5,1.52,1.52,0,0,1,1.19-1.4l71.21-15.82a1.5,1.5,0,0,1,1.58.63,1.52,1.52,0,0,1,0,1.71l-22.52,31.68A1.53,1.53,0,0,1,300.21,621.49Zm-42.85-17.08,42.39,13.81,19.61-27.58Z"/><path class="cls-1" d="M322.74,589.83a1.45,1.45,0,0,1-.82-.34L257.82,538a1.48,1.48,0,0,1-.1-2.25l37.1-35.26a1.47,1.47,0,0,1,1.41-.36,1.52,1.52,0,0,1,1.07,1l27,86.78a1.53,1.53,0,0,1-.59,1.71A1.59,1.59,0,0,1,322.74,589.83ZM261,536.7,320,584.06l-24.81-79.75Z"/><path class="cls-1" d="M322.74,589.83a1.54,1.54,0,0,1-1.32-1.06l-27-86.78a1.51,1.51,0,0,1,2-1.83l162.85,70.89a1.5,1.5,0,0,1-.42,2.88L323,589.81A1.51,1.51,0,0,1,322.74,589.83Zm-24.47-85.59,25.66,82.45L453,571.58Z"/><path class="cls-1" d="M63.08,428.14a1.6,1.6,0,0,1-.51-.13l-47.9-22.22A1.51,1.51,0,0,1,14,403.7a115.61,115.61,0,0,1,6.49-10.59,116,116,0,0,1,48.06-89,115.72,115.72,0,0,1,27.31-48.76,1.39,1.39,0,0,1,.48-.34L181.5,216.5a1.49,1.49,0,0,1,1.74.36,1.51,1.51,0,0,1,.19,1.76L64.52,427.39A1.52,1.52,0,0,1,63.08,428.14ZM17.4,403.74l45.19,20.95L178.52,221.16,97.83,257.6A112.83,112.83,0,0,0,71.3,305.38a1.52,1.52,0,0,1-.58.84,113,113,0,0,0-47.26,87.44,1.42,1.42,0,0,1-.27.8C21.17,397.36,19.23,400.47,17.4,403.74Z"/><path class="cls-1" d="M3.37,439A1.5,1.5,0,0,1,2,437.24,115.23,115.23,0,0,1,14,403.7a1.5,1.5,0,0,1,1.95-.65l47.91,22.22a1.51,1.51,0,0,1-.36,2.85L3.76,439A1.7,1.7,0,0,1,3.37,439ZM16,406.39A112.25,112.25,0,0,0,5.41,435.64L58.27,426Z"/><path class="cls-1" d="M578.41,701.38a1.48,1.48,0,0,1-1.09-.62L484.61,573a1.5,1.5,0,0,1,1-2.36l43.22-6.94a1.53,1.53,0,0,1,1.66,1L580,699.36a1.5,1.5,0,0,1-.71,1.85A1.52,1.52,0,0,1,578.41,701.38ZM488.5,573.17l84.87,117L528.08,566.83Z"/><path class="cls-1" d="M578.41,701.38a1.52,1.52,0,0,1-1.3-1L527.64,565.66a1.53,1.53,0,0,1,1.86-2l46.62,14.24a1.47,1.47,0,0,1,1.07,1.4L580,699.85a1.51,1.51,0,0,1-1.23,1.51A1.79,1.79,0,0,1,578.41,701.38ZM531.52,567.47l45.29,123.35-2.6-110.34Z"/><path class="cls-1" d="M329,219a1.62,1.62,0,0,1-.8-.31L286,186.2a1.51,1.51,0,0,1,.15-2.49L342,150.1a1.88,1.88,0,0,1,.56-.2l.74-.1c.56-.1,1.13-.2,1.71-.26a68.55,68.55,0,0,1,29.1,2.87,1.5,1.5,0,0,1,.77,2.3L330.39,218.4a1.5,1.5,0,0,1-1,.63A2,2,0,0,1,329,219Zm-39.42-33.88,39.21,30.22,42.4-60.7a65.31,65.31,0,0,0-25.88-2.14c-.53.05-1,.15-1.57.22l-.47.08Z"/><path class="cls-1" d="M301.47,652.55h0a122.81,122.81,0,0,1-18.1-2.84,1.5,1.5,0,0,1-1-.87,1.52,1.52,0,0,1,.08-1.36L299,619.22a1.52,1.52,0,0,1,1.14-.73,1.54,1.54,0,0,1,1.27.47l27.95,30.26a1.52,1.52,0,0,1-.89,2.51l-.7.11-2,.28A125,125,0,0,1,301.47,652.55Zm-15.41-5.32a120.53,120.53,0,0,0,39.16,1.91L300.61,622.5Z"/><path class="cls-1" d="M328.17,651.75a1.55,1.55,0,0,1-1-.48L299.23,621a1.51,1.51,0,0,1-.12-1.89l22.53-31.66a1.45,1.45,0,0,1,1.26-.65,1.36,1.36,0,0,1,1.24.7l34.31,54.23a1.5,1.5,0,0,1,.17,1.27,1.53,1.53,0,0,1-.87.94,123.31,123.31,0,0,1-29.26,7.79A1.16,1.16,0,0,1,328.17,651.75Zm-25.89-31.89,26.58,28.79a121.27,121.27,0,0,0,26.08-6.84L322.8,591Z"/><path class="cls-1" d="M448.81,655.47a1.6,1.6,0,0,1-.41-.09,77.7,77.7,0,0,1-44.74-43.84A123.71,123.71,0,0,1,357.75,644a1.55,1.55,0,0,1-1.84-.59l-34.32-54.24a1.5,1.5,0,0,1,1.1-2.29l135.84-15.9a1.46,1.46,0,0,1,1.24.44,1.49,1.49,0,0,1,.44,1.23l-9.77,81.55a1.54,1.54,0,0,1-.72,1.1A1.42,1.42,0,0,1,448.81,655.47ZM404.3,607.15l.15,0a1.53,1.53,0,0,1,1.15,1,74.63,74.63,0,0,0,42.07,43.71L457,574.14l-131.56,15.4,32.36,51.13a120.44,120.44,0,0,0,45.25-33A1.5,1.5,0,0,1,404.3,607.15Z"/><path class="cls-1" d="M524.48,865.07l-.12,0-.43-.06a1.54,1.54,0,0,1-1.26-1.52,1.82,1.82,0,0,1,1-1.58,1.44,1.44,0,0,1,1.64.19l.42.47a1.5,1.5,0,0,1-1.23,2.52Z"/><path class="cls-1" d="M461.31,667.67a1.56,1.56,0,0,1-1.23-.84,76.64,76.64,0,0,1-3.77-8.93,70.22,70.22,0,0,1-7.91-2.52,1.52,1.52,0,0,1-1-1.59l9.78-81.53a1.5,1.5,0,0,1,1.48-1.34l27.13-.36a1.63,1.63,0,0,1,1.2.58,1.5,1.5,0,0,1,.28,1.3l-24.4,94.1a1.5,1.5,0,0,1-1.32,1.11A1.18,1.18,0,0,1,461.31,667.67ZM450.57,653a75,75,0,0,0,7.26,2.21,1.49,1.49,0,0,1,1.07,1c.6,1.8,1.31,3.63,2.13,5.54l22.86-88.1-23.84.31Z"/><path class="cls-1" d="M586.45,401.6h0a1.54,1.54,0,0,1-1.17-.8l-58.9-111.14a1.52,1.52,0,0,1,.47-2,1.5,1.5,0,0,1,2,.24l77.77,88.34a1.51,1.51,0,0,1,0,1.95l-18.88,22.82A1.52,1.52,0,0,1,586.45,401.6ZM535,299.54l51.85,97.85,16.62-20.08Z"/><path class="cls-1" d="M627.26,705.46h0l-48.85-4.08a1.51,1.51,0,0,1-1.39-1.47L574.18,579.4a1.5,1.5,0,0,1,2.77-.85L650,691.42a1.5,1.5,0,0,1-.32,2,77.36,77.36,0,0,1-21.81,12A1.64,1.64,0,0,1,627.26,705.46Zm-47.25-7,47.17,3.93a73.83,73.83,0,0,0,19.55-10.54L577.32,584.67Z"/><path class="cls-1" d="M648.63,693.73h-.14a1.53,1.53,0,0,1-1-.67L574.42,580.18a1.43,1.43,0,0,1-.18-1.22,1.46,1.46,0,0,1,.78-1l50.51-24.65a1.56,1.56,0,0,1,1.32,0,1.51,1.51,0,0,1,.82,1l27.85,133a1.5,1.5,0,0,1-.44,1.41c-1.7,1.6-3.51,3.16-5.4,4.63A1.53,1.53,0,0,1,648.63,693.73ZM577.87,580l71.24,110q1.7-1.39,3.29-2.86L625.11,556.92Z"/><path class="cls-1" d="M653.93,689.19a1.91,1.91,0,0,1-.33-.06,1.53,1.53,0,0,1-1-1.14L624.72,555a1.46,1.46,0,0,1,.33-1.28,1.52,1.52,0,0,1,1.22-.53l85.84,4.95a1.42,1.42,0,0,1,1.17.69,1.48,1.48,0,0,1,.16,1.34l-27.12,73.7a1.6,1.6,0,0,1-.66.79c-1.45.82-2.92,1.62-4.42,2.35-.59.31-1.19.56-1.78.83a77.46,77.46,0,0,1-24.38,50.93A1.49,1.49,0,0,1,653.93,689.19ZM628.07,556.34,655,684.7a74.5,74.5,0,0,0,21.55-47.94,1.52,1.52,0,0,1,.88-1.28l.47-.2c.68-.31,1.37-.62,2-.95,1.27-.63,2.54-1.29,3.76-2l26.22-71.28Z"/><path class="cls-1" d="M684.78,634.87a1.44,1.44,0,0,1-.85-.34,1.53,1.53,0,0,1-.44-1.68l27.11-73.71a1.53,1.53,0,0,1,1.48-1,1.48,1.48,0,0,1,1.39,1.09L721.75,588a1.42,1.42,0,0,1,0,.84,77.34,77.34,0,0,1-36.09,45.84A1.4,1.4,0,0,1,684.78,634.87Zm27.07-70.36-24,65.33a74.3,74.3,0,0,0,30.92-41.43Z"/><path class="cls-1" d="M295.73,503.05a1,1,0,0,1-.3-.07,1.49,1.49,0,0,1-1.08-1.39L288.6,324.27a1.51,1.51,0,0,1,2.3-1.33l91.88,56.71a1.48,1.48,0,0,1,.68,1,1.51,1.51,0,0,1-.25,1.18L297.08,502.42A1.49,1.49,0,0,1,295.73,503.05Zm-4-176.06L297.22,497l82.61-115.68Z"/><path class="cls-1" d="M381.87,382.43a1.44,1.44,0,0,1-.67-.22l-91.89-56.7a1.51,1.51,0,0,1,.9-2.79l110.51,7.69a1.27,1.27,0,0,1,1.17.69,1.51,1.51,0,0,1,.13,1.34l-18.63,49a1.47,1.47,0,0,1-1.52,1ZM296.1,326.15l85.13,52.54,17.25-45.42Z"/><path class="cls-1" d="M295.73,503.05a1.54,1.54,0,0,1-1.05-.57,1.5,1.5,0,0,1-.05-1.81l86.13-120.62a1.52,1.52,0,0,1,1.82-.51L483.1,422.12a1.49,1.49,0,0,1,.92,1.39,1.51,1.51,0,0,1-.92,1.39l-186.66,78A1.46,1.46,0,0,1,295.73,503.05Zm86.78-120.27L300.16,498.11,478.63,423.5Z"/><path class="cls-1" d="M458.6,573.92a1.35,1.35,0,0,1-.49-.11L295.25,502.92a1.51,1.51,0,0,1-.9-1.39,1.48,1.48,0,0,1,.93-1.37l186.66-78a1.5,1.5,0,0,1,2.06,1.63L460.2,572.67a1.53,1.53,0,0,1-.77,1.08A1.36,1.36,0,0,1,458.6,573.92ZM299.7,501.57l157.82,68.7,23.07-144.33Z"/><path class="cls-1" d="M482.4,425a1.26,1.26,0,0,1-.47-.12L381.4,382.32a1.51,1.51,0,0,1-.82-1.93l18.62-49a1.52,1.52,0,0,1,1.14-.94,1.49,1.49,0,0,1,1.4.47l81.89,91.6a1.51,1.51,0,0,1,.11,1.89A1.54,1.54,0,0,1,482.4,425ZM383.91,380.1l93,39.39-75.76-84.73Z"/><path class="cls-1" d="M482.4,425a1.55,1.55,0,0,1-1-.5l-81.9-91.59a1.53,1.53,0,0,1,.17-2.19l58.2-47.08a1.46,1.46,0,0,1,1.46-.24,1.53,1.53,0,0,1,1,1.16L484,423.25a1.49,1.49,0,0,1-.84,1.61A1.37,1.37,0,0,1,482.4,425Zm-79.61-92.92,77.35,86.51-22.4-131Z"/><path class="cls-1" d="M458.6,573.92a1.43,1.43,0,0,1-1-.51,1.46,1.46,0,0,1-.34-1.22L481,423.27a1.51,1.51,0,0,1,1.59-1.27h0a1.51,1.51,0,0,1,1.38,1.47L487.34,572a1.49,1.49,0,0,1-1.49,1.54l-27.12.36Zm22.78-133.76L460.48,570.9l23.82-.32Z"/><path class="cls-1" d="M485.72,573.57a1.51,1.51,0,0,1-.85-.34,1.49,1.49,0,0,1-.54-1.12L481,423.54A1.51,1.51,0,0,1,484,423l46.54,141.63a1.55,1.55,0,0,1-.14,1.26,1.45,1.45,0,0,1-1.06.69l-43.21,6.93A1.11,1.11,0,0,1,485.72,573.57Zm-1.47-140,3.06,136.69,39.77-6.37Z"/><path class="cls-1" d="M482.4,425a1.52,1.52,0,0,1-1.37-1.25L457.31,285.07a1.52,1.52,0,0,1,1.58-1.75l68.87,4.12a1.41,1.41,0,0,1,1.16.66,1.53,1.53,0,0,1,.18,1.33L483.94,424A1.44,1.44,0,0,1,482.4,425ZM460.61,286.44,483,417.35l42.62-127Z"/><path class="cls-1" d="M482.4,425a1.53,1.53,0,0,1-1-.5,1.51,1.51,0,0,1-.31-1.48l45.16-134.56a1.5,1.5,0,0,1,1.31-1,1.48,1.48,0,0,1,1.46.79L587.9,399.39a1.48,1.48,0,0,1,0,1.33,1.52,1.52,0,0,1-1,.84L482.84,425A1.66,1.66,0,0,1,482.4,425ZM528,292.76,484.8,421.45l99.52-22.39Z"/><path class="cls-1" d="M182,219.38h-.08a1.53,1.53,0,0,1-1.16-.85L173,202.25a1.52,1.52,0,0,1,.55-1.92,111.27,111.27,0,0,1,34.84-14.62,1.5,1.5,0,0,1,1.47,2.45l-26.58,30.7A1.52,1.52,0,0,1,182,219.38Zm-5.72-17.22,6.21,13,21.93-25.33A108,108,0,0,0,176.28,202.16Z"/><path class="cls-1" d="M182,219.38a1.52,1.52,0,0,1-1.14-.68,1.5,1.5,0,0,1,.12-1.81l26.58-30.7a1.54,1.54,0,0,1,.81-.48,114.6,114.6,0,0,1,12.27-2.15c2.22-.26,4.41-.42,6.61-.55a111.85,111.85,0,0,1,53.84-21.42c2.76-.31,5.52-.53,8.2-.64a1.42,1.42,0,0,1,1.16.47,1.49,1.49,0,0,1,.4,1.19l-2.41,22.55a1.48,1.48,0,0,1-1,1.28L182.57,219.31A1.4,1.4,0,0,1,182,219.38Zm27.52-30.84-22.79,26.31,98.82-31L287.67,164c-2.05.13-4.15.31-6.23.55a108.81,108.81,0,0,0-52.75,21.1,1.42,1.42,0,0,1-.82.3c-2.29.13-4.57.29-6.88.56A115,115,0,0,0,209.52,188.54Z"/><path class="cls-1" d="M286.82,186.51a1.57,1.57,0,0,1-.68-.23,1.49,1.49,0,0,1-.69-1.44l2.4-22.55a1.51,1.51,0,0,1,1.44-1.34,112.5,112.5,0,0,1,23.11,1.4,68.81,68.81,0,0,1,30.15-12.45,1.51,1.51,0,0,1,1,2.79L287.72,186.3A1.5,1.5,0,0,1,286.82,186.51Zm3.89-22.61-1.94,18.25L334,154.93a65.37,65.37,0,0,0-20.29,10.22,1.48,1.48,0,0,1-1.16.28A109.15,109.15,0,0,0,290.71,163.9Z"/><path class="cls-1" d="M101.17,573.1h-.07a115.23,115.23,0,0,1-56.7-23.53,1.5,1.5,0,0,1-.43-1.85l6.28-12.65a1.51,1.51,0,0,1,2-.71l74.19,33.49a1.5,1.5,0,0,1,.86,1.62,1.54,1.54,0,0,1-1.33,1.26l-24.5,2.38ZM47.22,547.94a112.05,112.05,0,0,0,54.09,22.13l18.7-1.81-67.7-30.57Z"/><path class="cls-1" d="M105.84,573.57h0c-1.58-.13-3.17-.29-4.74-.48a1.51,1.51,0,0,1,0-3l24.5-2.38a1.54,1.54,0,0,1,1.34.58,1.5,1.5,0,0,1,.22,1.43l-1,2.82a1.53,1.53,0,0,1-1.3,1A116.4,116.4,0,0,1,105.84,573.57Z"/><path class="cls-1" d="M125.67,570.72a1.68,1.68,0,0,1-.5-.13L51,537.1a1.5,1.5,0,0,1-.88-1.54l11.6-109.08a1.51,1.51,0,0,1,2.88-.44l62.58,142.57a1.51,1.51,0,0,1-1.5,2.11ZM53.22,534.8l69.61,31.42L64.11,432.44Z"/><path class="cls-1" d="M125.67,570.72a1.56,1.56,0,0,1-1.27-.91L61.83,427.24a1.49,1.49,0,0,1,.1-1.39,1.51,1.51,0,0,1,1.2-.72L196.25,418a1.5,1.5,0,0,1,1.33.66,1.48,1.48,0,0,1,.11,1.48L127.15,569.85a1.52,1.52,0,0,1-1.38.87ZM65.46,428l60.37,137.54,68.06-144.43Z"/><path class="cls-1" d="M124.93,573.51a1.72,1.72,0,0,1-1.2-.58,1.58,1.58,0,0,1-.39-1.42l1-2.81a1.5,1.5,0,0,1,1.34-1,1.53,1.53,0,0,1,1.43.85l1.27,2.62a1.54,1.54,0,0,1,0,1.4,1.5,1.5,0,0,1-1.16.75l-2,.19Z"/><path class="cls-1" d="M194.67,565.74a1.52,1.52,0,0,1-1.33-1.08c-1.08-3.68-2-7.49-2.76-11.31a1.52,1.52,0,0,1,1.13-1.77l66.69-16.24a1.5,1.5,0,0,1,1,2.84l-64,27.45A1.47,1.47,0,0,1,194.67,565.74Zm-.84-11.57c.55,2.71,1.2,5.39,1.94,8l45.76-19.64Z"/><path class="cls-1" d="M126.93,573.32a1.47,1.47,0,0,1-1.23-.84l-1.27-2.62a1.49,1.49,0,0,1,1-2.11l44.33-10.81a1.5,1.5,0,0,1,1.08,2.78,114.59,114.59,0,0,1-42.13,13.47l-1.51.13A.82.82,0,0,1,126.93,573.32Zm28.69-9.83L128,570.23l.39,0A111.66,111.66,0,0,0,155.62,563.49Z"/><path class="cls-1" d="M125.67,570.72a1.55,1.55,0,0,1-1-.56,1.49,1.49,0,0,1-.2-1.59L195,418.86a1.51,1.51,0,0,1,2.69-.06l62.43,117.29a1.52,1.52,0,0,1-1,2.17l-66.7,16.25a1.47,1.47,0,0,1-1.17-.19,1.49,1.49,0,0,1-.67-1c-.45-2.3-.81-4.42-1.1-6.42a115.28,115.28,0,0,1-18.64,12.79,1.11,1.11,0,0,1-.37.15l-44.33,10.81A1.52,1.52,0,0,1,125.67,570.72Zm70.74-147.85L128.5,567l41.07-10a112.41,112.41,0,0,0,20-14.14,1.48,1.48,0,0,1,1.53-.27,1.5,1.5,0,0,1,1,1.23c.26,2.28.63,4.71,1.13,7.41l63.28-15.42Z"/><path class="cls-1" d="M361.52,240.54a1.45,1.45,0,0,1-.71-.25l-32.49-21.5a1.47,1.47,0,0,1-.66-1,1.51,1.51,0,0,1,.35-1.19l51.83-60.78a1.48,1.48,0,0,1,1.76-.39l.45.19.16.06a68.69,68.69,0,0,1,15.25-5.09,1.54,1.54,0,0,1,1.47.52,1.47,1.47,0,0,1,.23,1.53l-36.12,87a1.53,1.53,0,0,1-1,.87A1.51,1.51,0,0,1,361.52,240.54ZM331.4,217.22,361,236.78l34.31-82.63a64.74,64.74,0,0,0-12.38,4.51,1.56,1.56,0,0,1-1.32,0l-.16-.07Z"/><path class="cls-1" d="M329,219a1.62,1.62,0,0,1-.8-.31,1.5,1.5,0,0,1-.31-2L372.4,153a1.48,1.48,0,0,1,1.7-.57,68.47,68.47,0,0,1,7.52,3,1.57,1.57,0,0,1,.84,1,1.54,1.54,0,0,1-.33,1.31L330.3,218.52A1.53,1.53,0,0,1,329,219Zm45.2-63.41-26,37.16,30.25-35.47C377.06,156.67,375.63,156.12,374.23,155.63Z"/><path class="cls-1" d="M636.83,254.14a1.35,1.35,0,0,1-.45-.11L604.69,241a1.51,1.51,0,0,1-.75-2.11L610,227.5a1.51,1.51,0,0,1,1.86-.7A47.28,47.28,0,0,1,638.33,252a1.5,1.5,0,0,1-.31,1.66A1.53,1.53,0,0,1,636.83,254.14Zm-29.45-15.31,26.47,10.9A44.36,44.36,0,0,0,612,230.1Z"/><path class="cls-1" d="M701.27,350.68a1.48,1.48,0,0,1-1-.51L604.14,240.58a1.48,1.48,0,0,1-.09-1.87,1.49,1.49,0,0,1,1.79-.52l31.68,13.05a1.46,1.46,0,0,1,.81.79,45.09,45.09,0,0,1,2.5,7.43,59.13,59.13,0,0,1,33.36,46.75c.18,1.51.3,3,.35,4.52a59.65,59.65,0,0,1,28.32,38.1,1.51,1.51,0,0,1-.78,1.68A1.54,1.54,0,0,1,701.27,350.68ZM610.64,243.43,698,343A56.71,56.71,0,0,0,672.33,313a1.55,1.55,0,0,1-.78-1.29c0-1.69-.15-3.39-.35-5.1a56.19,56.19,0,0,0-32.29-44.69,1.49,1.49,0,0,1-.83-1,43.5,43.5,0,0,0-2.28-7Z"/><path class="cls-1" d="M45.2,549.88a1.41,1.41,0,0,1-.8-.32,116,116,0,0,1-31.28-37.5,1.5,1.5,0,0,1,2.16-1.95l37.15,24.36A1.5,1.5,0,0,1,53,536.4l-6.28,12.65a1.54,1.54,0,0,1-1,.8A1.18,1.18,0,0,1,45.2,549.88ZM18.77,516a113.45,113.45,0,0,0,26,30l4.87-9.79Z"/><path class="cls-1" d="M51.49,537.23a1.67,1.67,0,0,1-.71-.24L13.63,512.63a1.34,1.34,0,0,1-.51-.57,114.5,114.5,0,0,1-12-37.39,1.51,1.51,0,0,1,2.67-1.16l49,61.28a1.51,1.51,0,0,1-.06,2A1.49,1.49,0,0,1,51.49,537.23ZM15.6,510.33l28.93,18.95L5.07,479.9A111.62,111.62,0,0,0,15.6,510.33Z"/><path class="cls-1" d="M527.55,290.45a1.52,1.52,0,0,1-1.32-1.94l18.25-60.22a1.49,1.49,0,0,1,1.71-1l59.35,10.86a1.5,1.5,0,0,1,1.21,1.19,1.54,1.54,0,0,1-.67,1.56l-77.6,49.36A1.54,1.54,0,0,1,527.55,290.45Zm19.43-60-16.68,55,70.92-45.11Z"/><path class="cls-1" d="M545.8,230.23a1.52,1.52,0,0,1-.68-.22,1.55,1.55,0,0,1-.69-1.11l-4.87-41.59a1.51,1.51,0,0,1,.94-1.57,1.53,1.53,0,0,1,1.76.48l.21.27a46.74,46.74,0,0,1,42.36,28.77,1.48,1.48,0,0,1,0,1.2,1.57,1.57,0,0,1-.88.8l-37.52,12.9A1.67,1.67,0,0,1,545.8,230.23Zm-2.95-40.71,4.35,37.18L581.39,215A43.71,43.71,0,0,0,542.85,189.52Z"/><path class="cls-1" d="M605.15,241.09l-.16,0-59.34-10.86a1.51,1.51,0,0,1,.22-3l61-1.95a1.29,1.29,0,0,1,.44,0,44.43,44.43,0,0,1,4.55,1.49,1.51,1.51,0,0,1,.87.88,1.47,1.47,0,0,1-.08,1.23l-6.06,11.38A1.5,1.5,0,0,1,605.15,241.09Zm-45.09-11.31,44.39,8.13,4.73-8.88c-.8-.27-1.6-.53-2.42-.75Z"/><path class="cls-1" d="M545.8,230.23a1.51,1.51,0,0,1-.37-2.93L583,214.41a1.5,1.5,0,0,1,1.87.85,46.79,46.79,0,0,1,2.82,9.1c.69-.12,1.38-.23,2.08-.32a47.18,47.18,0,0,1,17.6,1.27,1.51,1.51,0,0,1-.35,3l-61,1.95A.49.49,0,0,1,545.8,230.23Zm36.78-12.51-26.7,9.18,29-.93A44.41,44.41,0,0,0,582.58,217.72Z"/><path class="cls-1" d="M361.52,240.54a1.47,1.47,0,0,1-1.08-.6,1.52,1.52,0,0,1-.19-1.48l36.13-87a1.49,1.49,0,0,1,1.09-.9c2-.41,4-.74,6-1a68.46,68.46,0,0,1,40.88,8,1.65,1.65,0,0,1,.62.38L506.2,223.1a1.5,1.5,0,0,1,.32,1.56,1.53,1.53,0,0,1-1.26,1L361.79,240.53A.81.81,0,0,1,361.52,240.54Zm37.34-87.2L364,237.28,501.92,223l-59-62.71a65.32,65.32,0,0,0-39.18-7.66C402.19,152.76,400.53,153,398.86,153.34Z"/><path class="cls-1" d="M458.68,286.33a1.68,1.68,0,0,1-.52-.14L361,240.4a1.54,1.54,0,0,1-.85-1.62,1.5,1.5,0,0,1,1.34-1.24L505,222.64a1.49,1.49,0,0,1,1.47.76,1.52,1.52,0,0,1-.11,1.65L460,285.74A1.5,1.5,0,0,1,458.68,286.33ZM367.18,240l91.16,43L501.8,226Z"/><path class="cls-1" d="M505,225.63a1.49,1.49,0,0,1-1-.47L442.73,160a1.52,1.52,0,0,1,.6-2.46,48.24,48.24,0,0,1,10-2.34,47.3,47.3,0,0,1,30.3,6.79l.27,0a46.93,46.93,0,0,1,26.21,4.56A1.53,1.53,0,0,1,511,168l-4.37,56.29a1.53,1.53,0,0,1-1,1.31A1.55,1.55,0,0,1,505,225.63Zm-58.43-66,57.31,61,4-51.86a43.64,43.64,0,0,0-23.61-3.83l-.74.13a1.42,1.42,0,0,1-1-.23,44.31,44.31,0,0,0-28.83-6.64A43.5,43.5,0,0,0,446.56,159.67Z"/><path class="cls-1" d="M458.68,286.33a1.53,1.53,0,0,1-1.25-.88,1.5,1.5,0,0,1,.17-1.54l46.31-60.69a1.4,1.4,0,0,1,1.43-.57,1.48,1.48,0,0,1,1.19,1l22.56,64.81a1.5,1.5,0,0,1-1.51,2l-68.88-4.12Zm45.92-59.06-42.88,56.22,63.79,3.82Z"/><path class="cls-1" d="M527.55,290.45a1.51,1.51,0,0,1-1.3-1l-22.57-64.81a1.52,1.52,0,0,1,1.59-2l40.82,4.6a1.5,1.5,0,0,1,1.09.68,1.45,1.45,0,0,1,.18,1.25l-18.25,60.22a1.5,1.5,0,0,1-1.41,1.07ZM507.32,225.9l20.25,58.18L544,230Z"/><path class="cls-1" d="M545.8,230.23h0l-40.81-4.6A1.5,1.5,0,0,1,503.6,224L508,167.73a1.5,1.5,0,0,1,.76-1.19,1.48,1.48,0,0,1,1.4,0c1.59.79,2.88,1.5,4.07,2.23a47,47,0,0,1,28,17.49,1.49,1.49,0,0,1,.3.75l4.87,41.6a1.52,1.52,0,0,1-.43,1.24A1.53,1.53,0,0,1,545.8,230.23Zm-39.08-7.43L544.2,227l-4.59-39.29a43.91,43.91,0,0,0-26.25-16.1,1.78,1.78,0,0,1-.52-.21c-.66-.42-1.35-.82-2-1.2Z"/><path class="cls-1" d="M507.15,745.94a1.5,1.5,0,0,1-1.32-1.05,262.25,262.25,0,0,0-20.45-48.61,78,78,0,0,1-25.3-29.45,1.53,1.53,0,0,1-.1-1.05l24.4-94.09a1.51,1.51,0,0,1,1.29-1.12,1.54,1.54,0,0,1,1.51.81l79.13,153.11a1.44,1.44,0,0,1,.16.82l-.13,1.74a1.44,1.44,0,0,1-1.07,1.32l-57.56,17.51A1.55,1.55,0,0,1,507.15,745.94ZM463,666a75,75,0,0,0,24.35,28,1.64,1.64,0,0,1,.46.52,263,263,0,0,1,20.41,48l55.16-16.76,0-.31L486.31,576.25Z"/><path class="cls-1" d="M524.48,865.07a1.52,1.52,0,0,1-1-.49l-.43-.45a1.53,1.53,0,0,1-.4-1c-.34-43.78-6-83.56-16.84-118.23a1.51,1.51,0,0,1,1-1.89l57.57-17.5a1.5,1.5,0,0,1,1.93,1.56c-.08,1.17-.16,2.36-.23,3.54L526.05,864a1.48,1.48,0,0,1-1.11,1A1.79,1.79,0,0,1,524.48,865.07ZM509.15,745.43c10,32.5,15.49,69.36,16.41,109.71l37.58-125.07c0-.31,0-.66.05-1.05Z"/><path class="cls-1" d="M564.86,726.69a1.52,1.52,0,0,1-1.22-.81L484.5,572.76a1.5,1.5,0,0,1,.54-2,1.52,1.52,0,0,1,2,.39L579.75,699a1.48,1.48,0,0,1,.14,1.53l-1.93,4a1.48,1.48,0,0,1-1.86.77c-2.48-.88-4.75-1.81-6.91-2.8-1.14,7-2,14.48-2.68,22.3a1.56,1.56,0,0,1,0,.48,1.67,1.67,0,0,1-1.66,1.38ZM496.37,589.14l67.56,130.73c.67-6.93,1.55-13.58,2.62-19.82a1.54,1.54,0,0,1,.8-1.08,1.45,1.45,0,0,1,1.36,0,72.74,72.74,0,0,0,7.13,3.06l.94-2Z"/><path class="cls-1" d="M524.48,865.07a1.49,1.49,0,0,1-1.32-1.93l40-133.07a1.51,1.51,0,0,1,3,.53C563,779.17,570,830.7,574.49,857.09a1.4,1.4,0,0,1-.27,1.14,1.48,1.48,0,0,1-1,.61l-48.4,6.22A1.16,1.16,0,0,1,524.48,865.07Zm38-122.4-35.79,119.1,44.55-5.72C567.15,831.39,561.13,786.8,562.5,742.67Z"/><path class="cls-1" d="M595.81,709.57h0a78.33,78.33,0,0,1-19.71-4.24,1.49,1.49,0,0,1-.89-.85,1.55,1.55,0,0,1,0-1.23l1.92-4a1.48,1.48,0,0,1,1.48-.85h0l48.85,4.07a1.51,1.51,0,0,1,1.37,1.31,1.49,1.49,0,0,1-1,1.61,77.93,77.93,0,0,1-32.07,4.2ZM578.69,703a74.15,74.15,0,0,0,17.36,3.53h0a73.84,73.84,0,0,0,14.56-.26,78.3,78.3,0,0,0,8.61-1.51l-39.78-3.32Z"/><path class="cls-1" d="M227.42,619.33a1.4,1.4,0,0,1-.92-.42A122.15,122.15,0,0,1,210.25,600a1.54,1.54,0,0,1,0-1.65,1.72,1.72,0,0,1,1.47-.71l40.16,5a1.51,1.51,0,0,1,1.28,1.2,1.49,1.49,0,0,1-.72,1.61l-24.12,13.69A1.47,1.47,0,0,1,227.42,619.33ZM214.73,601a120.63,120.63,0,0,0,13,15L247,605.08Z"/><path class="cls-1" d="M276.64,647.88a1.12,1.12,0,0,1-.31,0,124,124,0,0,1-49.83-28.92,1.46,1.46,0,0,1-.46-1.26,1.49,1.49,0,0,1,.76-1.13l24.1-13.68a1.51,1.51,0,0,1,2,.54l25.11,42.24a1.5,1.5,0,0,1-1.42,2.26Zm-46.58-29.75a121.33,121.33,0,0,0,43.39,25.63l-22.34-37.58Z"/><path class="cls-1" d="M528.94,566.64a.93.93,0,0,1-.29,0,1.48,1.48,0,0,1-1-1L481.08,424a1.52,1.52,0,0,1,2-1.86l143,61a1.47,1.47,0,0,1,.9,1.17,1.52,1.52,0,0,1-.52,1.37L530,566.31A1.5,1.5,0,0,1,528.94,566.64ZM485,426.2,529.8,562.57,622.63,485Z"/><path class="cls-1" d="M625.36,486.05a1.63,1.63,0,0,1-.47-.12l-143-61a1.5,1.5,0,0,1,.26-2.85l104.06-23.42a1.53,1.53,0,0,1,1.7.85l38.92,84.44a1.53,1.53,0,0,1-1.5,2.14ZM487.4,424l135.08,57.68-36.77-79.8Z"/><path class="cls-1" d="M575.56,580.86a1.55,1.55,0,0,1-.31-.06l-46.63-14.21a1.55,1.55,0,0,1-1-1.16,1.51,1.51,0,0,1,.52-1.45l96.42-80.59a1.51,1.51,0,0,1,2.3,1.86L577,580.06A1.51,1.51,0,0,1,575.56,580.86Zm-43.4-16.35,42.77,13,45.68-87Z"/><path class="cls-1" d="M575.56,580.86a1.41,1.41,0,0,1-.95-.46,1.47,1.47,0,0,1-.26-1.74l49.79-94.82a1.54,1.54,0,0,1,1.7-.76,1.5,1.5,0,0,1,1.15,1.45l.71,70.17a1.53,1.53,0,0,1-.85,1.38l-50.5,24.63A1.45,1.45,0,0,1,575.56,580.86ZM624,490.54,579.16,576l45.52-22.21Z"/><path class="cls-1" d="M625.36,486.05a1.49,1.49,0,0,1-1.24-.88l-38.91-84.45a1.49,1.49,0,0,1,.2-1.59l18.87-22.81a1.45,1.45,0,0,1,1.55-.49,1.51,1.51,0,0,1,1.1,1.17l20,107.27a1.5,1.5,0,0,1-1,1.71A1.47,1.47,0,0,1,625.36,486.05Zm-37-85.73,33.43,72.57-17.22-92.17Z"/><path class="cls-1" d="M625.36,486.05a1.36,1.36,0,0,1-.46-.12,1.5,1.5,0,0,1-.9-1.11L604,377.56a1.51,1.51,0,0,1,2-1.69l112.77,43a1.54,1.54,0,0,1,1,1.23,1.5,1.5,0,0,1-.64,1.42l-92.73,64.25A1.55,1.55,0,0,1,625.36,486.05Zm-17.94-106.4L626.53,482,715,420.69Z"/><path class="cls-1" d="M626.07,556.22a1.51,1.51,0,0,1-1.39-1.49l-.7-70.17a1.5,1.5,0,0,1,2.49-1.15L713,558.53a1.5,1.5,0,0,1,.42,1.71,1.52,1.52,0,0,1-1.49.93l-85.82-4.94Zm.95-68.34.67,65.42,80,4.61Z"/><path class="cls-1" d="M711.9,561.17a1.53,1.53,0,0,1-.87-.36L624.5,485.68a1.48,1.48,0,0,1-.52-1.29,1.53,1.53,0,0,1,.77-1.17l101.19-55.86a1.52,1.52,0,0,1,1.58.07,1.49,1.49,0,0,1,.65,1.42l-9.26,82.79a1.48,1.48,0,0,1-.69,1.1,41.47,41.47,0,0,1-11.22,5,77.75,77.75,0,0,1,9.38,14.37,1.53,1.53,0,0,1,.16.84l-3,26.94a1.53,1.53,0,0,1-1.63,1.33Zm-83.8-76.35,82.74,71.83L713.5,533a74.67,74.67,0,0,0-10.37-15.23,1.5,1.5,0,0,1-.3-1.48,1.53,1.53,0,0,1,1.13-1,37.93,37.93,0,0,0,12-4.74l8.85-79.17Z"/><path class="cls-1" d="M625.36,486.05a1.51,1.51,0,0,1-.74-2.74l92.73-64.25a1.5,1.5,0,0,1,1.92.17l8.47,8.38a1.52,1.52,0,0,1-.34,2.39L626.21,485.86A1.5,1.5,0,0,1,625.36,486.05ZM718,422.25l-67.3,46.63,73.44-40.55Z"/><path class="cls-1" d="M717.29,513a1.53,1.53,0,0,1-.68-.23,1.46,1.46,0,0,1-.69-1.45l9.26-82.78a1.51,1.51,0,0,1,1-1.24l6.37-2.41a1.51,1.51,0,0,1,1.91.8,41,41,0,0,1-.74,34.84A41,41,0,0,1,737.24,473a41.51,41.51,0,0,1-19,39.73A1.54,1.54,0,0,1,717.29,513Zm10.78-83.21-8.79,78.58a38.48,38.48,0,0,0,15-35,37.51,37.51,0,0,0-3.59-12.21,1.53,1.53,0,0,1,0-1.35,37.85,37.85,0,0,0,1.55-31.6Z"/><path class="cls-1" d="M711.9,561.17a1.05,1.05,0,0,1-.38-.09,1.5,1.5,0,0,1-1-1.59l3-26.92a1.52,1.52,0,0,1,1.24-1.32,1.48,1.48,0,0,1,1.61.82l.5.95a77.3,77.3,0,0,1,5,13,1.5,1.5,0,0,1-.17,1.22l-8.38,13.25A1.55,1.55,0,0,1,711.9,561.17Zm4-22.95-1.69,15.11,4.52-7.14A76,76,0,0,0,715.94,538.22Z"/><path class="cls-1" d="M720.17,589.92a1.49,1.49,0,0,1-1.32-1.09l-8.27-28.74a1.45,1.45,0,0,1,.17-1.23l8.38-13.24a1.55,1.55,0,0,1,1.49-.69,1.49,1.49,0,0,1,1.23,1.08,77.53,77.53,0,0,1-.1,42.82,1.52,1.52,0,0,1-1.45,1.1Zm-6.52-30,6.55,22.71a74.53,74.53,0,0,0-.38-32.46Z"/><path class="cls-1" d="M726.55,430.18a1.5,1.5,0,0,1-1.24-.87,1.49,1.49,0,0,1,.63-1.94l6-3.34a1.48,1.48,0,0,1,1.2-.12,1.59,1.59,0,0,1,.9.79,6.32,6.32,0,0,1,.25.6,2,2,0,0,1,.08,1.38,1.61,1.61,0,0,1-.79,1l-6.37,2.42A1.51,1.51,0,0,1,726.55,430.18Z"/><path class="cls-1" d="M145.11,227.38a1.51,1.51,0,0,1-.33-2.94l1.1-.36,1.37-.46A113.29,113.29,0,0,1,159.41,211a1.5,1.5,0,0,1,1.38-.33l21.72,5.71a1.52,1.52,0,0,1-.06,2.94l-36.9,8A1.66,1.66,0,0,1,145.11,227.38Zm15.7-13.56a110,110,0,0,0-9,9.09l23.85-5.17Z"/><path class="cls-1" d="M96.81,257.86a1.51,1.51,0,0,1-1-2.54,115,115,0,0,1,48.94-30.88l37-8a1.51,1.51,0,0,1,.94,2.85L97.56,257.73A1.63,1.63,0,0,1,96.81,257.86Zm71.7-35.49-23,5A111.85,111.85,0,0,0,104,251.53Z"/><path class="cls-1" d="M299.32,323.32A10.55,10.55,0,1,1,289.65,312,10.55,10.55,0,0,1,299.32,323.32Z"/><path class="cls-1" d="M287.7,336a13.56,13.56,0,1,1,14.62-12.42A13.56,13.56,0,0,1,287.7,336Zm1.71-21a7.53,7.53,0,1,0,6.9,8.12A7.55,7.55,0,0,0,289.41,315Z"/><path class="cls-1" d="M372.16,239.89a10.55,10.55,0,1,1-9.66-11.37A10.55,10.55,0,0,1,372.16,239.89Z"/><path class="cls-1" d="M360.55,252.56a13.56,13.56,0,1,1,14.62-12.43A13.58,13.58,0,0,1,360.55,252.56Zm1.7-21a7.54,7.54,0,1,0,6.91,8.12A7.55,7.55,0,0,0,362.25,231.52Z"/><path class="cls-1" d="M337,219.65a6.78,6.78,0,1,1-6.21-7.31A6.77,6.77,0,0,1,337,219.65Z"/><path class="cls-1" d="M329.45,228.86a9.79,9.79,0,1,1,10.56-9A9.8,9.8,0,0,1,329.45,228.86Zm1.1-13.51a3.77,3.77,0,1,0,3.45,4.06A3.77,3.77,0,0,0,330.55,215.35Z"/><path class="cls-1" d="M554,229a8.29,8.29,0,1,1-7.6-8.94A8.3,8.3,0,0,1,554,229Z"/><path class="cls-1" d="M544.81,239.54A11.3,11.3,0,1,1,557,229.19,11.31,11.31,0,0,1,544.81,239.54ZM546.15,223A5.28,5.28,0,1,0,551,228.7,5.28,5.28,0,0,0,546.15,223Z"/><path class="cls-1" d="M515.62,225A10.55,10.55,0,1,1,506,213.61,10.55,10.55,0,0,1,515.62,225Z"/><path class="cls-1" d="M504,237.65a13.56,13.56,0,1,1,14.61-12.42A13.57,13.57,0,0,1,504,237.65Zm1.7-21a7.54,7.54,0,1,0,6.91,8.13A7.55,7.55,0,0,0,505.71,216.62Z"/><path class="cls-1" d="M469.32,285.67a10.55,10.55,0,1,1-9.66-11.36A10.55,10.55,0,0,1,469.32,285.67Z"/><path class="cls-1" d="M457.7,298.34a13.56,13.56,0,1,1,14.62-12.42A13.57,13.57,0,0,1,457.7,298.34Zm1.71-21a7.53,7.53,0,1,0,6.89,8.12A7.54,7.54,0,0,0,459.41,277.31Z"/><path class="cls-1" d="M493,421.44a10.55,10.55,0,1,1-9.66-11.37A10.54,10.54,0,0,1,493,421.44Z"/><path class="cls-1" d="M481.35,434.1A13.56,13.56,0,1,1,496,421.68,13.57,13.57,0,0,1,481.35,434.1Zm1.71-21A7.53,7.53,0,1,0,490,421.2,7.54,7.54,0,0,0,483.06,413.08Z"/><path class="cls-1" d="M634.54,484.34A10.55,10.55,0,1,1,624.87,473,10.56,10.56,0,0,1,634.54,484.34Z"/><path class="cls-1" d="M622.92,497a13.57,13.57,0,1,1,14.61-12.42A13.59,13.59,0,0,1,622.92,497Zm1.71-21a7.53,7.53,0,1,0,6.9,8.12A7.55,7.55,0,0,0,624.63,476Z"/><path class="cls-1" d="M616,380a10.55,10.55,0,1,1-9.65-11.37A10.54,10.54,0,0,1,616,380Z"/><path class="cls-1" d="M604.42,392.68A13.56,13.56,0,1,1,619,380.26,13.57,13.57,0,0,1,604.42,392.68Zm1.71-21a7.53,7.53,0,1,0,6.89,8.12A7.54,7.54,0,0,0,606.13,371.65Z"/><path class="cls-1" d="M392.5,381.77a10.55,10.55,0,1,1-9.66-11.35A10.53,10.53,0,0,1,392.5,381.77Z"/><path class="cls-1" d="M380.89,394.45A13.56,13.56,0,1,1,395.51,382,13.59,13.59,0,0,1,380.89,394.45Zm1.71-21a7.54,7.54,0,1,0,6.9,8.12A7.56,7.56,0,0,0,382.6,373.41Z"/><path class="cls-1" d="M539.06,290.1a10.55,10.55,0,1,1-9.67-11.37A10.56,10.56,0,0,1,539.06,290.1Z"/><path class="cls-1" d="M527.44,302.76a13.56,13.56,0,1,1,14.62-12.42A13.57,13.57,0,0,1,527.44,302.76Zm1.71-21a7.54,7.54,0,1,0,6.9,8.12A7.57,7.57,0,0,0,529.15,281.73Z"/><path class="cls-1" d="M615.14,242.21a9,9,0,1,1-8.28-9.74A9.05,9.05,0,0,1,615.14,242.21Z"/><path class="cls-1" d="M605.15,253.5a12.06,12.06,0,1,1,13-11A12.07,12.07,0,0,1,605.15,253.5Zm1.47-18a6,6,0,1,0,5.52,6.49A6,6,0,0,0,606.62,235.48Z"/><path class="cls-1" d="M298.15,184.35A10.55,10.55,0,1,1,288.48,173,10.56,10.56,0,0,1,298.15,184.35Z"/><path class="cls-1" d="M286.53,197a13.57,13.57,0,1,1,14.62-12.43A13.6,13.6,0,0,1,286.53,197Zm1.71-21a7.53,7.53,0,1,0,6.9,8.12A7.55,7.55,0,0,0,288.24,176Z"/><path class="cls-1" d="M328.4,286.61a10.55,10.55,0,1,1-9.66-11.37A10.55,10.55,0,0,1,328.4,286.61Z"/><path class="cls-1" d="M316.79,299.27a13.56,13.56,0,1,1,14.62-12.42A13.57,13.57,0,0,1,316.79,299.27Zm1.71-21a7.54,7.54,0,1,0,6.9,8.12A7.54,7.54,0,0,0,318.5,278.24Z"/><path class="cls-1" d="M539.58,566a10.55,10.55,0,1,1-9.67-11.37A10.56,10.56,0,0,1,539.58,566Z"/><path class="cls-1" d="M528,578.66a13.56,13.56,0,1,1,14.62-12.42A13.58,13.58,0,0,1,528,578.66Zm1.71-21a7.54,7.54,0,1,0,6.9,8.12A7.55,7.55,0,0,0,529.67,557.63Z"/><path class="cls-1" d="M468,572.29a10.54,10.54,0,1,1-9.65-11.37A10.54,10.54,0,0,1,468,572.29Z"/><path class="cls-1" d="M456.39,585A13.56,13.56,0,1,1,471,572.54,13.58,13.58,0,0,1,456.39,585Zm1.7-21a7.54,7.54,0,1,0,6.9,8.14A7.56,7.56,0,0,0,458.09,563.91Z"/><path class="cls-1" d="M333.37,589.17a10.54,10.54,0,1,1-9.65-11.37A10.55,10.55,0,0,1,333.37,589.17Z"/><path class="cls-1" d="M321.76,601.84a13.56,13.56,0,1,1,14.63-12.43A13.58,13.58,0,0,1,321.76,601.84Zm1.71-21a7.53,7.53,0,1,0,6.91,8.12A7.54,7.54,0,0,0,323.47,580.81Z"/><path class="cls-1" d="M637,555.6a10.55,10.55,0,1,1-9.66-11.37A10.55,10.55,0,0,1,637,555.6Z"/><path class="cls-1" d="M625.4,568.26A13.55,13.55,0,1,1,640,555.85,13.57,13.57,0,0,1,625.4,568.26Zm1.7-21a7.53,7.53,0,1,0,6.91,8.12A7.54,7.54,0,0,0,627.1,547.24Z"/><path class="cls-1" d="M267.94,538.5a10.55,10.55,0,1,1-9.67-11.36A10.56,10.56,0,0,1,267.94,538.5Z"/><path class="cls-1" d="M256.32,551.17a13.56,13.56,0,1,1,14.62-12.43A13.59,13.59,0,0,1,256.32,551.17Zm1.71-21a7.53,7.53,0,1,0,6.9,8.13A7.56,7.56,0,0,0,258,530.13Z"/><path class="cls-1" d="M307.15,500.11a10.55,10.55,0,1,1-9.67-11.37A10.55,10.55,0,0,1,307.15,500.11Z"/><path class="cls-1" d="M295.53,512.78a13.56,13.56,0,1,1,14.62-12.43A13.59,13.59,0,0,1,295.53,512.78Zm1.71-21a7.54,7.54,0,1,0,6.9,8.12A7.55,7.55,0,0,0,297.24,491.74Z"/><path class="cls-1" d="M205.84,419.31a10.54,10.54,0,1,1-9.66-11.37A10.54,10.54,0,0,1,205.84,419.31Z"/><path class="cls-1" d="M194.23,432a13.56,13.56,0,1,1,14.62-12.42A13.58,13.58,0,0,1,194.23,432Zm1.71-21a7.53,7.53,0,1,0,6.9,8.12A7.54,7.54,0,0,0,195.94,410.94Z"/><path class="cls-1" d="M73.11,427.69a10.55,10.55,0,1,1-9.66-11.37A10.55,10.55,0,0,1,73.11,427.69Z"/><path class="cls-1" d="M61.5,440.36a13.56,13.56,0,1,1,14.62-12.43A13.59,13.59,0,0,1,61.5,440.36Zm1.71-21a7.53,7.53,0,1,0,6.9,8.12A7.54,7.54,0,0,0,63.21,419.32Z"/><path class="cls-1" d="M191.9,218.58a10.55,10.55,0,1,1-9.67-11.37A10.55,10.55,0,0,1,191.9,218.58Z"/><path class="cls-1" d="M180.28,231.25a13.57,13.57,0,1,1,14.62-12.42A13.58,13.58,0,0,1,180.28,231.25Zm1.71-21a7.53,7.53,0,1,0,6.9,8.12A7.53,7.53,0,0,0,182,210.22Z"/><path class="cls-2" d="M63.08,428.14a1.51,1.51,0,0,1-1.18-2.25L180.81,217.13a1.54,1.54,0,0,1,1.64-.73,1.5,1.5,0,0,1,1.17,1.37L197.84,419.4a1.52,1.52,0,0,1-.37,1.1,1.5,1.5,0,0,1-1.05.5L63.29,428.14ZM181,222.94,65.88,425l128.84-6.91Z"/><path class="cls-2" d="M196.21,421a1.42,1.42,0,0,1-.4-.08,1.51,1.51,0,0,1-1-1.31L180.62,218a1.51,1.51,0,0,1,2.56-1.18l108,106.35a1.49,1.49,0,0,1,0,2.13l-93.77,95.28A1.51,1.51,0,0,1,196.21,421ZM183.9,221.74l13.7,194.33L288,324.24Z"/><path class="cls-2" d="M295.73,503.05a1.63,1.63,0,0,1-.84-.35l-99.52-82a1.51,1.51,0,0,1-.54-1.08,1.45,1.45,0,0,1,.43-1.13L289,323.17a1.5,1.5,0,0,1,1.63-.35,1.47,1.47,0,0,1,.95,1.35l5.76,177.33a1.52,1.52,0,0,1-1.64,1.55Zm-97.17-83.67,95.68,78.88-5.53-170.48Z"/><path class="cls-2" d="M258.64,538.3l-.12,0a1.49,1.49,0,0,1-1.09-.78L195,420.21a1.51,1.51,0,0,1,2.28-1.88l99.52,82.05a1.6,1.6,0,0,1,.56,1.11,1.55,1.55,0,0,1-.47,1.15l-37.1,35.25A1.52,1.52,0,0,1,258.64,538.3ZM201.23,425.49l57.93,108.85,34.43-32.72Z"/><path class="cls-2" d="M182,219.38l-.26,0L160,213.61a1.5,1.5,0,0,1-.61-2.58,111.75,111.75,0,0,1,14.12-10.7,1.52,1.52,0,0,1,1.23-.18,1.57,1.57,0,0,1,1,.8l7.77,16.28a1.52,1.52,0,0,1-.19,1.61A1.55,1.55,0,0,1,182,219.38Zm-18.44-8,15.8,4.17-5.63-11.79A109.5,109.5,0,0,0,163.56,211.42Z"/><path class="cls-2" d="M251.53,605.64h-.07l-40.16-5a1.56,1.56,0,0,1-1.05-.64,122.34,122.34,0,0,1-16.91-35.31,1.52,1.52,0,0,1,.85-1.82l64-27.42a1.51,1.51,0,0,1,2.09,1.54l-7.11,67.34a1.5,1.5,0,0,1-1.62,1.34Zm-39.19-7.94,38,4.75L257,539.19,196.61,565.1A119.65,119.65,0,0,0,212.34,597.7Z"/><path class="cls-2" d="M290,325.72a1.43,1.43,0,0,1-.93-.42L181.06,219a1.51,1.51,0,0,1,1.74-2.42l136.45,69.29a1.57,1.57,0,0,1,.79,1,1.52,1.52,0,0,1-.28,1.25L291.3,325.14a1.45,1.45,0,0,1-1.09.58ZM190.1,223.62,290,322l26.32-34.26Z"/><path class="cls-2" d="M346.16,326.61,293,322.91l26-33.79,26.94,14.69a34.3,34.3,0,0,1-.11-3.51l-26.51-14.45a1.49,1.49,0,0,0-1.92.4L288.91,323.3a1.51,1.51,0,0,0-.17,1.54,1.48,1.48,0,0,0,1.24.88h0l56.22,3.91C346.16,328.63,346.14,327.62,346.16,326.61Z"/><path class="cls-2" d="M330.29,220.09l16.28,10.78a33.62,33.62,0,0,1,0-3.62l-16.58-11a1.49,1.49,0,0,0-2.31,1l-10.6,69.63a1.52,1.52,0,0,0,.85,1.59,1.44,1.44,0,0,0,.52.14,1.48,1.48,0,0,0,1.25-.5l26.82-30s0-.09,0-.13a33.21,33.21,0,0,1,.25-4.68l-26,29Z"/><path class="cls-2" d="M345.8,300.3,321,286.76l25.55-28.55s0-.09,0-.13a33.21,33.21,0,0,1,.25-4.68l-29.32,32.76a1.5,1.5,0,0,0,.4,2.33l28.06,15.31A34,34,0,0,1,345.8,300.3Z"/><path class="cls-2" d="M283.59,649.75a.85.85,0,0,1-.22,0c-2.38-.55-4.72-1.2-7-1.88a1.48,1.48,0,0,1-.86-.67L250.35,604.9a1.49,1.49,0,0,1,.12-1.7,1.53,1.53,0,0,1,1.64-.49l48.69,15.85a1.49,1.49,0,0,1,.95.9,1.52,1.52,0,0,1-.11,1.3L285,649A1.51,1.51,0,0,1,283.59,649.75Zm-5.84-4.65q2.6.78,5.22,1.41l15.12-25.67-43.1-14Z"/><path class="cls-2" d="M51.49,537.23a1.51,1.51,0,0,1-1.06-.56l-49-61.28a1.64,1.64,0,0,1-.31-.73l-.14-1c-.08-.55-.17-1.1-.23-1.66A115.16,115.16,0,0,1,2,437.24,1.51,1.51,0,0,1,3.22,436l59.72-10.88a1.5,1.5,0,0,1,1.77,1.64L53.11,535.89A1.54,1.54,0,0,1,52,537.18,1.44,1.44,0,0,1,51.49,537.23ZM4.08,473.83l46.41,58.09,11-103.44L4.79,438.81a112.25,112.25,0,0,0-1,32.88c.06.53.14,1.05.22,1.58Z"/><path class="cls-2" d="M318.44,288.67a1.42,1.42,0,0,1-.56-.15l-136.44-69.3a1.51,1.51,0,0,1,.23-2.78L286.5,183.56a1.54,1.54,0,0,1,1.15.11,1.47,1.47,0,0,1,.73.89L320,286.73a1.48,1.48,0,0,1-.47,1.59A1.5,1.5,0,0,1,318.44,288.67ZM186.1,218.21l130,66L286,186.9Z"/><path class="cls-2" d="M318.44,288.67a1.5,1.5,0,0,1-1.31-1.06L285.5,185.44a1.51,1.51,0,0,1,2.37-1.63l42.21,32.54a1.51,1.51,0,0,1,.57,1.41l-10.59,69.63a1.5,1.5,0,0,1-1.39,1.28ZM289.79,189.1l28.27,91.35,9.47-62.26Z"/><path class="cls-2" d="M251.53,605.64a1.5,1.5,0,0,1-.88-.38,1.51,1.51,0,0,1-.5-1.28l7.11-67.34a1.5,1.5,0,0,1,.92-1.23,1.54,1.54,0,0,1,1.52.21l64.11,51.53a1.5,1.5,0,0,1-.62,2.64L252,605.61A1.29,1.29,0,0,1,251.53,605.64ZM260,539.7l-6.6,62.51,66.1-14.67Z"/><path class="cls-2" d="M300.21,621.49a1.09,1.09,0,0,1-.34-.07l-48.69-15.85a1.48,1.48,0,0,1-1-1.5,1.52,1.52,0,0,1,1.19-1.4l71.21-15.82a1.5,1.5,0,0,1,1.58.63,1.52,1.52,0,0,1,0,1.71l-22.52,31.68A1.53,1.53,0,0,1,300.21,621.49Zm-42.85-17.08,42.39,13.81,19.61-27.58Z"/><path class="cls-2" d="M322.74,589.83a1.45,1.45,0,0,1-.82-.34L257.82,538a1.48,1.48,0,0,1-.1-2.25l37.1-35.26a1.47,1.47,0,0,1,1.41-.36,1.52,1.52,0,0,1,1.07,1l27,86.78a1.53,1.53,0,0,1-.59,1.71A1.59,1.59,0,0,1,322.74,589.83ZM261,536.7,320,584.06l-24.81-79.75Z"/><path class="cls-2" d="M345.41,584.17l-21.48,2.51-25.66-82.44,48.41,21.07c-.26-1.19-.49-2.38-.67-3.58l-49.55-21.57a1.51,1.51,0,0,0-2,1.83l27,86.78a1.54,1.54,0,0,0,1.32,1.06,1.51,1.51,0,0,0,.3,0l22.17-2.59C345.23,586.2,345.35,585.19,345.41,584.17Z"/><path class="cls-2" d="M63.08,428.14a1.6,1.6,0,0,1-.51-.13l-47.9-22.22A1.51,1.51,0,0,1,14,403.7a115.61,115.61,0,0,1,6.49-10.59,116,116,0,0,1,48.06-89,115.72,115.72,0,0,1,27.31-48.76,1.39,1.39,0,0,1,.48-.34L181.5,216.5a1.49,1.49,0,0,1,1.74.36,1.51,1.51,0,0,1,.19,1.76L64.52,427.39A1.52,1.52,0,0,1,63.08,428.14ZM17.4,403.74l45.19,20.95L178.52,221.16,97.83,257.6A112.83,112.83,0,0,0,71.3,305.38a1.52,1.52,0,0,1-.58.84,113,113,0,0,0-47.26,87.44,1.42,1.42,0,0,1-.27.8C21.17,397.36,19.23,400.47,17.4,403.74Z"/><path class="cls-2" d="M3.37,439A1.5,1.5,0,0,1,2,437.24,115.23,115.23,0,0,1,14,403.7a1.5,1.5,0,0,1,1.95-.65l47.91,22.22a1.51,1.51,0,0,1-.36,2.85L3.76,439A1.7,1.7,0,0,1,3.37,439ZM16,406.39A112.25,112.25,0,0,0,5.41,435.64L58.27,426Z"/><path class="cls-2" d="M289.61,185.16l53.69-32.32.47-.08c.52-.08,1-.17,1.57-.22a4.91,4.91,0,0,1,.53,0c-.07-1-.09-2-.07-3-.27,0-.54,0-.8,0-.58.06-1.15.16-1.71.25l-.74.11a1.88,1.88,0,0,0-.56.2l-55.82,33.61a1.51,1.51,0,0,0-.15,2.49l42.21,32.53a1.62,1.62,0,0,0,.8.31,2,2,0,0,0,.35,0,1.5,1.5,0,0,0,1-.63l15.8-22.62a33,33,0,0,1,.25-5.62l-17.62,25.22Z"/><path class="cls-2" d="M301.47,652.55h0a122.81,122.81,0,0,1-18.1-2.84,1.5,1.5,0,0,1-1-.87,1.52,1.52,0,0,1,.08-1.36L299,619.22a1.52,1.52,0,0,1,1.14-.73,1.54,1.54,0,0,1,1.27.47l27.95,30.26a1.52,1.52,0,0,1-.89,2.51l-.7.11-2,.28A125,125,0,0,1,301.47,652.55Zm-15.41-5.32a120.53,120.53,0,0,0,39.16,1.91L300.61,622.5Z"/><path class="cls-2" d="M347.06,644.51a123.64,123.64,0,0,1-18.2,4.14l-26.58-28.79L322.8,591l22.44,35.47a20.22,20.22,0,0,1,.59-4.69l-21.69-34.29a1.34,1.34,0,0,0-1.24-.7,1.45,1.45,0,0,0-1.26.65l-22.53,31.66a1.51,1.51,0,0,0,.12,1.89l27.95,30.26a1.55,1.55,0,0,0,1,.48,1.16,1.16,0,0,0,.32,0,124.85,124.85,0,0,0,17.8-3.87C346.54,646.74,346.78,645.62,347.06,644.51Z"/><path class="cls-2" d="M345.83,621.79l-20.41-32.25,19.79-2.31c0-1,.14-2,.2-3.06l-22.72,2.66a1.49,1.49,0,0,0-1.1,2.29l23.65,37.37A19.77,19.77,0,0,1,345.83,621.79Z"/><path class="cls-2" d="M345.84,429,297.22,497l-5.51-170,54.43,33.59c0-1.15.05-2.3.16-3.45l-55.4-34.19a1.51,1.51,0,0,0-1.55,0,1.49,1.49,0,0,0-.75,1.35l5.75,177.32a1.49,1.49,0,0,0,1.07,1.39,1.16,1.16,0,0,0,.31.07,1.49,1.49,0,0,0,1.35-.63L346,434A33.51,33.51,0,0,1,345.84,429Z"/><path class="cls-2" d="M346.3,357.14l-50.2-31,50.12,3.49q-.09-1.51-.06-3l-56-3.89a1.51,1.51,0,0,0-.9,2.79l56.83,35.07C346.14,359.43,346.19,358.28,346.3,357.14Z"/><path class="cls-2" d="M300.16,498.11,346,434a33.51,33.51,0,0,1-.13-5l-51.21,71.72a1.5,1.5,0,0,0,.05,1.81,1.54,1.54,0,0,0,1.05.57,1.59,1.59,0,0,0,.71-.12l50.19-21c-.06-1.09-.06-2.17,0-3.26Z"/><path class="cls-2" d="M299.7,501.57,346.63,482c-.06-1.09-.06-2.17,0-3.26l-51.33,21.47a1.48,1.48,0,0,0-.93,1.37,1.51,1.51,0,0,0,.9,1.39l51.43,22.39c-.26-1.19-.49-2.38-.67-3.58Z"/><path class="cls-2" d="M182,219.38h-.08a1.53,1.53,0,0,1-1.16-.85L173,202.25a1.52,1.52,0,0,1,.55-1.92,111.27,111.27,0,0,1,34.84-14.62,1.5,1.5,0,0,1,1.47,2.45l-26.58,30.7A1.52,1.52,0,0,1,182,219.38Zm-5.72-17.22,6.21,13,21.93-25.33A108,108,0,0,0,176.28,202.16Z"/><path class="cls-2" d="M182,219.38a1.52,1.52,0,0,1-1.14-.68,1.5,1.5,0,0,1,.12-1.81l26.58-30.7a1.54,1.54,0,0,1,.81-.48,114.6,114.6,0,0,1,12.27-2.15c2.22-.26,4.41-.42,6.61-.55a111.85,111.85,0,0,1,53.84-21.42c2.76-.31,5.52-.53,8.2-.64a1.42,1.42,0,0,1,1.16.47,1.49,1.49,0,0,1,.4,1.19l-2.41,22.55a1.48,1.48,0,0,1-1,1.28L182.57,219.31A1.4,1.4,0,0,1,182,219.38Zm27.52-30.84-22.79,26.31,98.82-31L287.67,164c-2.05.13-4.15.31-6.23.55a108.81,108.81,0,0,0-52.75,21.1,1.42,1.42,0,0,1-.82.3c-2.29.13-4.57.29-6.88.56A115,115,0,0,0,209.52,188.54Z"/><path class="cls-2" d="M286.82,186.51a1.57,1.57,0,0,1-.68-.23,1.49,1.49,0,0,1-.69-1.44l2.4-22.55a1.51,1.51,0,0,1,1.44-1.34,112.5,112.5,0,0,1,23.11,1.4,68.81,68.81,0,0,1,30.15-12.45,1.51,1.51,0,0,1,1,2.79L287.72,186.3A1.5,1.5,0,0,1,286.82,186.51Zm3.89-22.61-1.94,18.25L334,154.93a65.37,65.37,0,0,0-20.29,10.22,1.48,1.48,0,0,1-1.16.28A109.15,109.15,0,0,0,290.71,163.9Z"/><path class="cls-2" d="M101.17,573.1h-.07a115.23,115.23,0,0,1-56.7-23.53,1.5,1.5,0,0,1-.43-1.85l6.28-12.65a1.51,1.51,0,0,1,2-.71l74.19,33.49a1.5,1.5,0,0,1,.86,1.62,1.54,1.54,0,0,1-1.33,1.26l-24.5,2.38ZM47.22,547.94a112.05,112.05,0,0,0,54.09,22.13l18.7-1.81-67.7-30.57Z"/><path class="cls-2" d="M105.84,573.57h0c-1.58-.13-3.17-.29-4.74-.48a1.51,1.51,0,0,1,0-3l24.5-2.38a1.54,1.54,0,0,1,1.34.58,1.5,1.5,0,0,1,.22,1.43l-1,2.82a1.53,1.53,0,0,1-1.3,1A116.4,116.4,0,0,1,105.84,573.57Z"/><path class="cls-2" d="M125.67,570.72a1.68,1.68,0,0,1-.5-.13L51,537.1a1.5,1.5,0,0,1-.88-1.54l11.6-109.08a1.51,1.51,0,0,1,2.88-.44l62.58,142.57a1.51,1.51,0,0,1-1.5,2.11ZM53.22,534.8l69.61,31.42L64.11,432.44Z"/><path class="cls-2" d="M125.67,570.72a1.56,1.56,0,0,1-1.27-.91L61.83,427.24a1.49,1.49,0,0,1,.1-1.39,1.51,1.51,0,0,1,1.2-.72L196.25,418a1.5,1.5,0,0,1,1.33.66,1.48,1.48,0,0,1,.11,1.48L127.15,569.85a1.52,1.52,0,0,1-1.38.87ZM65.46,428l60.37,137.54,68.06-144.43Z"/><path class="cls-2" d="M124.93,573.51a1.72,1.72,0,0,1-1.2-.58,1.58,1.58,0,0,1-.39-1.42l1-2.81a1.5,1.5,0,0,1,1.34-1,1.53,1.53,0,0,1,1.43.85l1.27,2.62a1.54,1.54,0,0,1,0,1.4,1.5,1.5,0,0,1-1.16.75l-2,.19Z"/><path class="cls-2" d="M194.67,565.74a1.52,1.52,0,0,1-1.33-1.08c-1.08-3.68-2-7.49-2.76-11.31a1.52,1.52,0,0,1,1.13-1.77l66.69-16.24a1.5,1.5,0,0,1,1,2.84l-64,27.45A1.47,1.47,0,0,1,194.67,565.74Zm-.84-11.57c.55,2.71,1.2,5.39,1.94,8l45.76-19.64Z"/><path class="cls-2" d="M126.93,573.32a1.47,1.47,0,0,1-1.23-.84l-1.27-2.62a1.49,1.49,0,0,1,1-2.11l44.33-10.81a1.5,1.5,0,0,1,1.08,2.78,114.59,114.59,0,0,1-42.13,13.47l-1.51.13A.82.82,0,0,1,126.93,573.32Zm28.69-9.83L128,570.23l.39,0A111.66,111.66,0,0,0,155.62,563.49Z"/><path class="cls-2" d="M125.67,570.72a1.55,1.55,0,0,1-1-.56,1.49,1.49,0,0,1-.2-1.59L195,418.86a1.51,1.51,0,0,1,2.69-.06l62.43,117.29a1.52,1.52,0,0,1-1,2.17l-66.7,16.25a1.47,1.47,0,0,1-1.17-.19,1.49,1.49,0,0,1-.67-1c-.45-2.3-.81-4.42-1.1-6.42a115.28,115.28,0,0,1-18.64,12.79,1.11,1.11,0,0,1-.37.15l-44.33,10.81A1.52,1.52,0,0,1,125.67,570.72Zm70.74-147.85L128.5,567l41.07-10a112.41,112.41,0,0,0,20-14.14,1.48,1.48,0,0,1,1.53-.27,1.5,1.5,0,0,1,1,1.23c.26,2.28.63,4.71,1.13,7.41l63.28-15.42Z"/><path class="cls-2" d="M331.4,217.22l15.13-17.73a31.48,31.48,0,0,1-.36-4.22L328,216.56a1.51,1.51,0,0,0-.35,1.19,1.47,1.47,0,0,0,.66,1l18.25,12.08a33.62,33.62,0,0,1,0-3.62Z"/><path class="cls-2" d="M346.44,190.16l-18.52,26.52a1.5,1.5,0,0,0,.31,2,1.62,1.62,0,0,0,.8.31,1.53,1.53,0,0,0,1.27-.52l16.23-19A33.51,33.51,0,0,1,346.44,190.16Z"/><path class="cls-2" d="M45.2,549.88a1.41,1.41,0,0,1-.8-.32,116,116,0,0,1-31.28-37.5,1.5,1.5,0,0,1,2.16-1.95l37.15,24.36A1.5,1.5,0,0,1,53,536.4l-6.28,12.65a1.54,1.54,0,0,1-1,.8A1.18,1.18,0,0,1,45.2,549.88ZM18.77,516a113.45,113.45,0,0,0,26,30l4.87-9.79Z"/><path class="cls-2" d="M51.49,537.23a1.67,1.67,0,0,1-.71-.24L13.63,512.63a1.34,1.34,0,0,1-.51-.57,114.5,114.5,0,0,1-12-37.39,1.51,1.51,0,0,1,2.67-1.16l49,61.28a1.51,1.51,0,0,1-.06,2A1.49,1.49,0,0,1,51.49,537.23ZM15.6,510.33l28.93,18.95L5.07,479.9A111.62,111.62,0,0,0,15.6,510.33Z"/><path class="cls-2" d="M227.42,619.33a1.4,1.4,0,0,1-.92-.42A122.15,122.15,0,0,1,210.25,600a1.54,1.54,0,0,1,0-1.65,1.72,1.72,0,0,1,1.47-.71l40.16,5a1.51,1.51,0,0,1,1.28,1.2,1.49,1.49,0,0,1-.72,1.61l-24.12,13.69A1.47,1.47,0,0,1,227.42,619.33ZM214.73,601a120.63,120.63,0,0,0,13,15L247,605.08Z"/><path class="cls-2" d="M276.64,647.88a1.12,1.12,0,0,1-.31,0,124,124,0,0,1-49.83-28.92,1.46,1.46,0,0,1-.46-1.26,1.49,1.49,0,0,1,.76-1.13l24.1-13.68a1.51,1.51,0,0,1,2,.54l25.11,42.24a1.5,1.5,0,0,1-1.42,2.26Zm-46.58-29.75a121.33,121.33,0,0,0,43.39,25.63l-22.34-37.58Z"/><path class="cls-2" d="M145.11,227.38a1.51,1.51,0,0,1-.33-2.94l1.1-.36,1.37-.46A113.29,113.29,0,0,1,159.41,211a1.5,1.5,0,0,1,1.38-.33l21.72,5.71a1.52,1.52,0,0,1-.06,2.94l-36.9,8A1.66,1.66,0,0,1,145.11,227.38Zm15.7-13.56a110,110,0,0,0-9,9.09l23.85-5.17Z"/><path class="cls-2" d="M96.81,257.86a1.51,1.51,0,0,1-1-2.54,115,115,0,0,1,48.94-30.88l37-8a1.51,1.51,0,0,1,.94,2.85L97.56,257.73A1.63,1.63,0,0,1,96.81,257.86Zm71.7-35.49-23,5A111.85,111.85,0,0,0,104,251.53Z"/><path class="cls-2" d="M299.32,323.32A10.55,10.55,0,1,1,289.65,312,10.55,10.55,0,0,1,299.32,323.32Z"/><path class="cls-2" d="M287.7,336a13.56,13.56,0,1,1,14.62-12.42A13.56,13.56,0,0,1,287.7,336Zm1.71-21a7.53,7.53,0,1,0,6.9,8.12A7.55,7.55,0,0,0,289.41,315Z"/><path class="cls-2" d="M337,219.65a6.78,6.78,0,1,1-6.21-7.31A6.77,6.77,0,0,1,337,219.65Z"/><path class="cls-2" d="M329.45,228.86a9.79,9.79,0,1,1,10.56-9A9.8,9.8,0,0,1,329.45,228.86Zm1.1-13.51a3.77,3.77,0,1,0,3.45,4.06A3.77,3.77,0,0,0,330.55,215.35Z"/><path class="cls-2" d="M298.15,184.35A10.55,10.55,0,1,1,288.48,173,10.56,10.56,0,0,1,298.15,184.35Z"/><path class="cls-2" d="M286.53,197a13.57,13.57,0,1,1,14.62-12.43A13.6,13.6,0,0,1,286.53,197Zm1.71-21a7.53,7.53,0,1,0,6.9,8.12A7.55,7.55,0,0,0,288.24,176Z"/><path class="cls-2" d="M328.4,286.61a10.55,10.55,0,1,1-9.66-11.37A10.55,10.55,0,0,1,328.4,286.61Z"/><path class="cls-2" d="M316.79,299.27a13.56,13.56,0,1,1,14.62-12.42A13.57,13.57,0,0,1,316.79,299.27Zm1.71-21a7.54,7.54,0,1,0,6.9,8.12A7.54,7.54,0,0,0,318.5,278.24Z"/><path class="cls-2" d="M333.37,589.17a10.54,10.54,0,1,1-9.65-11.37A10.55,10.55,0,0,1,333.37,589.17Z"/><path class="cls-2" d="M321.76,601.84a13.56,13.56,0,1,1,14.63-12.43A13.58,13.58,0,0,1,321.76,601.84Zm1.71-21a7.53,7.53,0,1,0,6.91,8.12A7.54,7.54,0,0,0,323.47,580.81Z"/><path class="cls-2" d="M267.94,538.5a10.55,10.55,0,1,1-9.67-11.36A10.56,10.56,0,0,1,267.94,538.5Z"/><path class="cls-2" d="M256.32,551.17a13.56,13.56,0,1,1,14.62-12.43A13.59,13.59,0,0,1,256.32,551.17Zm1.71-21a7.53,7.53,0,1,0,6.9,8.13A7.56,7.56,0,0,0,258,530.13Z"/><path class="cls-2" d="M307.15,500.11a10.55,10.55,0,1,1-9.67-11.37A10.55,10.55,0,0,1,307.15,500.11Z"/><path class="cls-2" d="M295.53,512.78a13.56,13.56,0,1,1,14.62-12.43A13.59,13.59,0,0,1,295.53,512.78Zm1.71-21a7.54,7.54,0,1,0,6.9,8.12A7.55,7.55,0,0,0,297.24,491.74Z"/><path class="cls-2" d="M205.84,419.31a10.54,10.54,0,1,1-9.66-11.37A10.54,10.54,0,0,1,205.84,419.31Z"/><path class="cls-2" d="M194.23,432a13.56,13.56,0,1,1,14.62-12.42A13.58,13.58,0,0,1,194.23,432Zm1.71-21a7.53,7.53,0,1,0,6.9,8.12A7.54,7.54,0,0,0,195.94,410.94Z"/><path class="cls-2" d="M73.11,427.69a10.55,10.55,0,1,1-9.66-11.37A10.55,10.55,0,0,1,73.11,427.69Z"/><path class="cls-2" d="M61.5,440.36a13.56,13.56,0,1,1,14.62-12.43A13.59,13.59,0,0,1,61.5,440.36Zm1.71-21a7.53,7.53,0,1,0,6.9,8.12A7.54,7.54,0,0,0,63.21,419.32Z"/><path class="cls-2" d="M191.9,218.58a10.55,10.55,0,1,1-9.67-11.37A10.55,10.55,0,0,1,191.9,218.58Z"/><path class="cls-2" d="M180.28,231.25a13.57,13.57,0,1,1,14.62-12.42A13.58,13.58,0,0,1,180.28,231.25Zm1.71-21a7.53,7.53,0,1,0,6.9,8.12A7.53,7.53,0,0,0,182,210.22Z"/><path class="cls-1" d="M288.47,330a8,8,0,1,1,8.6-7.31A8,8,0,0,1,288.47,330Zm1-12.37a4.43,4.43,0,1,0,4.06,4.78A4.43,4.43,0,0,0,289.47,317.63Z"/><path class="cls-2" d="M604.27,387.61a8,8,0,1,1,8.6-7.31A8,8,0,0,1,604.27,387.61Zm1-12.38a4.43,4.43,0,1,0,4.06,4.78A4.45,4.45,0,0,0,605.27,375.23Z"/><path class="cls-2" d="M527.73,572.85a8,8,0,1,1,8.6-7.31A8,8,0,0,1,527.73,572.85Zm1-12.37a4.43,4.43,0,1,0,4.07,4.77A4.43,4.43,0,0,0,528.73,560.48Z"/><line class="cls-3" x1="287.63" y1="319.19" x2="212.37" y2="62.31"/><line class="cls-3" x1="212.38" y1="62.93" x2="168.82" y2="62.93"/><line class="cls-4" x1="606.71" y1="375.79" x2="733.6" y2="181.73"/><line class="cls-4" x1="782.98" y1="826.68" x2="739.42" y2="826.68"/><line class="cls-4" x1="776.96" y1="182.26" x2="733.41" y2="182.26"/><text class="cls-5" transform="translate(797.94 147.96)">02</text><text class="cls-6" transform="translate(797.03 187.28)">B<tspan class="cls-7" x="15.49" y="0">r</tspan><tspan x="23.42" y="0">ains</tspan><tspan class="cls-8" x="69.55" y="0">t</tspan><tspan x="77.43" y="0">orm</tspan></text><line class="cls-4" x1="532.7" y1="569.23" x2="739.82" y2="827.35"/><text class="cls-5" transform="translate(798.82 794.85)">02</text><text class="cls-6" transform="translate(797.91 834.17)">B<tspan class="cls-7" x="15.49" y="0">r</tspan><tspan x="23.42" y="0">ains</tspan><tspan class="cls-8" x="69.55" y="0">t</tspan><tspan x="77.43" y="0">orm</tspan></text><text class="cls-9" transform="translate(111.01 29.8)">02</text><text class="cls-10" transform="translate(29.24 69.11)">B<tspan class="cls-11" x="15.49" y="0">r</tspan><tspan x="23.42" y="0">ains</tspan><tspan class="cls-12" x="69.55" y="0">t</tspan><tspan x="77.43" y="0">orm</tspan></text></g></g></svg>